<svg xmlns="http://www.w3.org/2000/svg" viewBox="0 0 496 431"><defs><style>.cls-1{fill:#fff;}</style></defs><g id="Layer_2" data-name="Layer 2"><g id="Layer_1-2" data-name="Layer 1"><path class="cls-1" d="M466,30V351a50,50,0,0,1-50,50H80a50,50,0,0,1-50-50V80A50,50,0,0,1,80,30h71.83a50,50,0,0,1,48.51,37.9L221.07,151c3.15,12.65,13.89,22.24,26.88,23.25a30,30,0,0,0,31.48-22.65L300.31,67.9A50,50,0,0,1,348.82,30H466M496,0H325.39a50,50,0,0,0-48.52,37.9l-18.78,75.3c-2,8.08-13.51,8.08-15.53,0L223.78,37.9A50,50,0,0,0,175.27,0H50A50,50,0,0,0,0,50V381a50,50,0,0,0,50,50H446a50,50,0,0,0,50-50V0Z"/><circle class="cls-1" cx="142" cy="249" r="35"/><path class="cls-1" d="M384,259H332a10,10,0,0,1,0-20h52a10,10,0,0,1,0,20Z"/></g></g></svg>