<svg width="28" height="28" viewBox="0 0 28 28" fill="none" xmlns="http://www.w3.org/2000/svg">
<path d="M24.4382 9.68918C24.4264 8.80557 24.261 7.93075 23.9493 7.10384C23.6791 6.40635 23.2663 5.77291 22.7374 5.24398C22.2084 4.71505 21.575 4.30227 20.8775 4.03201C20.0612 3.72559 19.1989 3.55991 18.3272 3.54201C17.2048 3.49184 16.849 3.47784 14 3.47784C11.151 3.47784 10.7858 3.47784 9.67167 3.54201C8.80036 3.56004 7.93841 3.72572 7.12251 4.03201C6.42491 4.30208 5.79136 4.7148 5.26241 5.24375C4.73346 5.7727 4.32074 6.40625 4.05067 7.10384C3.74364 7.9195 3.57832 8.78164 3.56184 9.65301C3.51167 10.7765 3.49651 11.1323 3.49651 13.9813C3.49651 16.8303 3.49651 17.1943 3.56184 18.3097C3.57934 19.1823 3.74384 20.0433 4.05067 20.8612C4.3212 21.5586 4.73422 22.1919 5.26335 22.7206C5.79248 23.2493 6.42608 23.6619 7.12367 23.9318C7.93734 24.2506 8.79944 24.4281 9.67284 24.4568C10.7963 24.507 11.1522 24.5222 14.0012 24.5222C16.8502 24.5222 17.2153 24.5222 18.3295 24.4568C19.2012 24.4397 20.0636 24.2744 20.8798 23.968C21.5771 23.6974 22.2104 23.2845 22.7393 22.7557C23.2682 22.2268 23.6811 21.5935 23.9517 20.8962C24.2585 20.0795 24.423 19.2185 24.4405 18.3447C24.4907 17.2223 24.5058 16.8665 24.5058 14.0163C24.5035 11.1673 24.5035 10.8057 24.4382 9.68918V9.68918ZM13.993 19.369C11.0133 19.369 8.59951 16.9552 8.59951 13.9755C8.59951 10.9958 11.0133 8.58201 13.993 8.58201C15.4235 8.58201 16.7953 9.15025 17.8068 10.1617C18.8183 11.1732 19.3865 12.5451 19.3865 13.9755C19.3865 15.406 18.8183 16.7778 17.8068 17.7893C16.7953 18.8008 15.4235 19.369 13.993 19.369V19.369ZM19.6012 9.64018C19.436 9.64033 19.2724 9.60791 19.1197 9.54476C18.967 9.48161 18.8283 9.38897 18.7115 9.27216C18.5947 9.15534 18.5021 9.01664 18.4389 8.86398C18.3758 8.71132 18.3434 8.54771 18.3435 8.38251C18.3435 8.21743 18.376 8.05396 18.4392 7.90145C18.5024 7.74893 18.595 7.61035 18.7117 7.49362C18.8284 7.37689 18.967 7.28429 19.1195 7.22112C19.272 7.15794 19.4355 7.12543 19.6006 7.12543C19.7657 7.12543 19.9291 7.15794 20.0817 7.22112C20.2342 7.28429 20.3728 7.37689 20.4895 7.49362C20.6062 7.61035 20.6988 7.74893 20.762 7.90145C20.8252 8.05396 20.8577 8.21743 20.8577 8.38251C20.8577 9.07784 20.2953 9.64018 19.6012 9.64018Z" fill="#EFE9F5"/>
<path d="M13.993 17.479C15.9279 17.479 17.4965 15.9104 17.4965 13.9755C17.4965 12.0406 15.9279 10.472 13.993 10.472C12.0581 10.472 10.4895 12.0406 10.4895 13.9755C10.4895 15.9104 12.0581 17.479 13.993 17.479Z" fill="#EFE9F5"/>
</svg>
