<svg width="28" height="28" viewBox="0 0 28 28" fill="none" xmlns="http://www.w3.org/2000/svg">
<path fill-rule="evenodd" clip-rule="evenodd" d="M11.0005 10.4638H15.3335V12.6221C15.9577 11.3808 17.5583 10.2655 19.9628 10.2655C24.5723 10.2655 25.6667 12.7365 25.6667 17.2701V25.6666H21V18.3026C21 15.7208 20.3758 14.2648 18.7868 14.2648C16.583 14.2648 15.6672 15.834 15.6672 18.3015V25.6666H11.0005V10.4638V10.4638ZM2.99833 25.4683H7.66499V10.2655H2.99833V25.4683V25.4683ZM8.33349 5.30831C8.33367 5.69947 8.25609 6.08675 8.10528 6.44766C7.95447 6.80858 7.73342 7.13591 7.45499 7.41065C6.8908 7.97137 6.12711 8.28524 5.33166 8.28331C4.53762 8.28278 3.77569 7.96971 3.21066 7.41181C2.93324 7.13614 2.71295 6.80844 2.5624 6.44748C2.41185 6.08653 2.334 5.69941 2.33333 5.30831C2.33333 4.51848 2.64833 3.76248 3.21183 3.20481C3.77636 2.64616 4.53861 2.33296 5.33283 2.33331C6.12849 2.33331 6.89149 2.64715 7.45499 3.20481C8.01733 3.76248 8.33349 4.51848 8.33349 5.30831Z" fill="#EFE9F5"/>
</svg>
