<svg width="28" height="28" viewBox="0 0 28 28" fill="none" xmlns="http://www.w3.org/2000/svg">
<path d="M25.375 6.95353C24.5383 7.31446 23.6277 7.57423 22.6898 7.6754C23.6636 7.09691 24.3928 6.18298 24.7406 5.10509C23.8269 5.64865 22.8259 6.02981 21.782 6.23165C21.3458 5.76524 20.8181 5.39367 20.2319 5.14011C19.6458 4.88654 19.0137 4.75641 18.375 4.75782C15.791 4.75782 13.7129 6.85236 13.7129 9.42267C13.7129 9.78361 13.7566 10.1445 13.8277 10.4918C9.9586 10.2895 6.50782 8.44103 4.21368 5.61095C3.79566 6.32494 3.5766 7.13789 3.5793 7.96525C3.5793 9.584 4.40235 11.0113 5.65742 11.8508C4.91779 11.8217 4.19547 11.6184 3.54922 11.2574V11.3149C3.54922 13.5817 5.15157 15.4602 7.28711 15.8922C6.88614 15.9964 6.47366 16.0496 6.05938 16.0508C5.75586 16.0508 5.46875 16.0207 5.17891 15.9797C5.76953 17.8281 7.48946 19.1707 9.5375 19.2145C7.93516 20.4695 5.92813 21.2078 3.74883 21.2078C3.35782 21.2078 2.99688 21.1942 2.62227 21.1504C4.68946 22.4766 7.14219 23.2422 9.7836 23.2422C18.3586 23.2422 23.0508 16.1383 23.0508 9.97228C23.0508 9.76993 23.0508 9.56759 23.0371 9.36525C23.9449 8.70079 24.7406 7.87775 25.375 6.95353Z" fill="#EFE9F5"/>
</svg>
